<svg width="91" height="91" viewBox="0 0 91 91" fill="none" xmlns="http://www.w3.org/2000/svg">
<path d="M34.8203 4.22461C40.4528 -1.40791 49.5853 -1.40791 55.2178 4.22461L85.8135 34.8203C91.4455 40.4527 91.4454 49.5844 85.8135 55.2168L55.2178 85.8125C49.5853 91.445 40.4528 91.445 34.8203 85.8125L4.22461 55.2168C-1.40774 49.5843 -1.40783 40.4528 4.22461 34.8203L34.8203 4.22461ZM43.001 37.7979C41.4125 37.6883 39.8664 37.8767 38.3936 38.4854C36.4644 39.2826 35.083 40.6337 34.4014 42.6299C34.024 43.7497 33.921 44.9004 34.0488 46.0811C34.1828 47.2616 34.5411 48.3572 35.2227 49.3369C36.2085 50.7488 37.5781 51.6252 39.209 52.1182C40.6452 52.5503 42.1184 52.6411 43.6094 52.4707C44.3945 52.3794 45.1679 52.234 45.9287 52.0088C46.1294 51.9479 46.1965 51.8563 46.1904 51.6494C46.1539 50.5905 46.1291 49.5375 46.0986 48.4785C46.0926 48.4359 46.1107 48.3808 46.0195 48.3564C45.9222 48.393 45.8127 48.4418 45.7031 48.4844C44.6198 48.9043 43.5001 49.0937 42.3437 48.9111C40.9622 48.6859 39.9036 47.9794 39.3193 46.6709C39.0089 45.9771 38.9844 45.2408 39.0879 44.4922C39.2948 42.9768 40.3049 41.8081 41.7959 41.4551C42.9704 41.1812 44.1146 41.3394 45.21 41.8262C45.3802 41.8991 45.5388 41.9784 45.709 42.0635C45.7941 41.887 45.7886 41.7168 45.8008 41.5586C45.886 40.6762 45.9712 39.7936 46.0625 38.9111C46.099 38.5522 46.1105 38.5523 45.7637 38.4062C44.8813 38.0351 43.9564 37.8648 43.001 37.7979ZM27.001 37.8154C26.0637 37.712 25.1323 37.7432 24.2012 37.8223C22.9232 37.9318 21.6754 38.1869 20.4766 38.6494C20.1967 38.7589 20.1902 38.7592 20.1963 39.0693C20.2145 39.97 20.2393 40.8649 20.2637 41.7656C20.2637 41.8386 20.2207 41.9362 20.3301 41.9971C20.5491 41.8997 20.7622 41.7897 20.9873 41.6924C22.4661 41.0777 24.0183 40.9196 25.6006 41.0352C26.0022 41.0656 26.3917 41.1695 26.7568 41.3398C27.5298 41.6928 27.908 42.3139 27.9932 43.1416C28.0235 43.4392 27.9987 43.4575 27.707 43.415C26.2647 43.202 24.822 43.2206 23.3857 43.4336C22.3937 43.5797 21.4321 43.8415 20.5557 44.3467C19.4419 44.9857 18.724 45.9229 18.5049 47.207C18.4867 47.3226 18.492 47.4565 18.3643 47.5234V48.6191C18.4616 48.6922 18.4798 48.8016 18.498 48.9111C18.7293 50.3167 19.5147 51.2962 20.7803 51.917C21.6688 52.3552 22.6249 52.5196 23.5986 52.5439C24.268 52.5622 24.9313 52.4773 25.5703 52.2461C26.5989 51.8809 27.3541 51.1869 27.9687 50.3105C28.0417 50.2071 28.0779 50.0728 28.2725 50.0059C28.2725 50.17 28.2664 50.2981 28.2725 50.4258C28.2968 50.9491 28.3333 51.4669 28.3516 51.9902C28.3576 52.1423 28.4065 52.2212 28.5645 52.2031H32.4658C32.5754 52.2031 32.6854 52.2273 32.7949 52.1543C32.7584 51.8258 32.7035 51.4909 32.667 51.1562C32.5575 50.1036 32.5388 49.0449 32.5449 47.9922V43.5791C32.5449 43.1532 32.5263 42.7274 32.4473 42.3076C32.1734 40.78 31.4314 39.5682 30.0742 38.7588C29.1249 38.1929 28.0842 37.9372 27.001 37.8154ZM59.4219 38.0596C58.3203 37.6762 57.2001 37.6701 56.0742 37.9014C54.5101 38.2239 53.2749 39.0332 52.502 40.4756C52.4715 40.5364 52.4525 40.6216 52.3125 40.6338V38.4424C52.3125 38.108 52.3128 38.1016 51.9785 38.1016H48.2227C47.8822 38.1016 47.876 38.1019 47.876 38.4365V51.8994C47.876 52.2093 47.8823 52.2158 48.1982 52.2158H52.4287C52.7448 52.2158 52.7449 52.2093 52.751 51.8994V46.1357C52.751 45.6002 52.7933 45.0704 52.8906 44.541C53.0063 43.8898 53.2077 43.2692 53.6094 42.7275C54.218 41.912 55.204 41.7044 56.0195 41.8809C56.6767 42.0209 57.0475 42.4962 57.2666 43.0986C57.4552 43.6158 57.498 44.1633 57.498 44.7109V52.0645C57.508 52.184 57.5898 52.2196 57.7178 52.209H62.2031C62.3245 52.2149 62.379 52.1546 62.373 52.0332V46.415C62.3731 45.8919 62.385 45.3687 62.458 44.8516C62.5432 44.2308 62.6898 43.6339 62.9941 43.0801C63.2863 42.5568 63.688 42.1425 64.2783 41.96C65.611 41.5523 66.6397 42.0092 66.9805 43.415C67.0717 43.7984 67.1143 44.1818 67.1143 44.5713V52.0508C67.1143 52.1482 67.1512 52.209 67.2607 52.209H71.5996C72.0256 52.209 71.9893 52.2336 71.9893 51.8076C71.9893 49.3854 71.9832 46.9691 71.9893 44.5469C71.9893 43.8896 71.9711 43.2383 71.9346 42.5811C71.9041 41.9603 71.8071 41.3454 71.6367 40.749C71.1924 39.1668 70.1634 38.2118 68.5508 37.9014C67.7109 37.7431 66.8647 37.7003 66.0127 37.8281C64.765 38.0168 63.6691 38.5156 62.7744 39.4346C62.4763 39.7388 62.239 40.0921 61.9834 40.4268C61.8801 40.3476 61.8494 40.238 61.8008 40.1406C61.2896 39.1184 60.4927 38.4308 59.4219 38.0596ZM26.1123 45.8496C26.6843 45.874 27.2503 45.9044 27.8223 45.9287C27.9683 45.9348 28.011 45.996 28.0049 46.1299C27.9316 47.8521 26.5077 49.7501 24.2197 49.1904C23.6598 49.0565 23.2217 48.7403 23.0391 48.1621C22.8322 47.511 23.0873 46.7931 23.6592 46.3975C24.0669 46.1115 24.5357 45.9837 25.0225 45.9229C25.3815 45.8742 25.7471 45.8314 26.1123 45.8496Z" fill="white"/>
</svg>
